<?xml version="1.0" encoding="UTF-8"?>
<svg id="Layer_2" data-name="Layer 2" xmlns="http://www.w3.org/2000/svg" viewBox="0 0 327.76 156.23">
  <g id="Layer_2-2" data-name="Layer 2">
    <g id="Layer_1-2" data-name="Layer 1-2">
      <path d="M162.94,61.31c-2.64,2.12-5.89,2.72-8.28,1.45-.32-.17-1.81-.96-2.47-2.62-.94-2.39.46-5.02,1.74-7.12,6.12-10.01,14.08-15.22,19.91-19.04,1.61-1.06,2.94-1.84,4.65-1.74,2.8.15,4.04,2.49,7.12,2.47,1.41,0,2.43-.51,3.2-.87,8.58-4,39.3-14.51,40.83-14.68.08,0,.36-.02.58-.22.37-.34.17-.83.44-1.26.24-.38.69-.46,1.21-.58,2.35-.54,2.08-.92,3.25-.97,1.3-.06,1.63.41,2.82.15.69-.16,1.17-.45,1.32-.54,3.21-1.89,32.45-11.7,36.04-11.8.18,0,.76,0,1.16-.39.56-.54.23-1.29.62-2.1.53-1.09,1.96-1.39,2.02-1.4,2.15-.42,5.14,2.14,5.36,4.66.11,1.33-.57,2.26,0,3.96.12.37.21.48.78,1.48,2.36,4.13,3.54,6.19,3.57,6.29.08.25.22.69.62.93.65.39,1.31-.15,2.17-.16,1.13,0,1.96.91,3.03,2.1.8.89,2.4,2.65,3.03,3.73.06.09.21.37.46.4.37.04.7-.5.76-.58.65-.96,5.15-1.87,7.92-1.57,5.33.58,11.39,6.38,13.92,13.02,2.92,7.63.74,15.24,0,17.81-.19.65-.34,1.12-.54,1.71-5.53,16.34-15.65,28.05-17.71,31.13-.24.36-.48.79-.72.64-1.83-1.18-2.22-1.71-2.82-3.19-.17-.41.46-3.91-1.09-1.6-.16.24-1.54,1.23-1.42.02.61-6.17-2.84-1.64-3.18-2.26-.2-.37-.09-.79-.04-.97,1.84-6.88,3.38-11.76.92-19.22-1.7-5.14-3.39-9.05-5-14.12-1.37-4.33-1.48-5.86-3.77-7.24-3.52-2.11.32-3.25-.66-5.61-1.14-2.74-.66-3.62-2.5-3.31-3,.5-90.21,33.29-98.74,38.41-.42.25-1.18.74-2.27.81-3.67.25-5.96-3.12-11.06-5.57-1.43-.69-3.85-1.01-7.16-.42" style="fill: #ff3c00;"/>
      <path d="M149.25,62.26s-1.22.18-10.79.7c-8.32.45-23.08,2.67-34.75,2.65h50.94s2.42,3.73,7.58.37c5.16-3.35,8.95-.25,8.95-.25,0,0,6.83,5.9,10.25,5.4s9.32-3.85,9.63-3.85,68.97.1,68.97.1l-11.67,11.67s-209.64-1.5-221.5-.65c-11.56.83-12.91,9.23-13.34,30.36-.12,5.77-.7,13.31-.37,19.08.29,5.14,3.59,14.87,18.33,14.46,14.74-.41,43.68.4,43.68.4l-10.03,13.51H25.6s-21.5.02-25.6-26.4C.07,103.89-.02,100.42,0,89.79c0-6.5,4.3-18.54,16.79-21.82,12.49-3.28,15.04-2.56,35.43-2.88,39.35-.62,38.29.22,38.29.22,0,0-.02-6.2,4.36-6.12s53.56-2.7,53.56-2.7"/>
      <polygon points="70.48 156.23 80.8 142.45 93.58 142.45 84.02 156.23 70.48 156.23" style="fill: #ff3c00;"/>
      <polygon points="89.82 155.55 100.13 142.45 113.13 142.45 103.46 155.55 89.82 155.55"/>
      <polygon points="109.91 155.55 119.58 142.45 132.68 142.45 123.01 155.55 109.91 155.55" style="fill: #ff3c00;"/>
      <path d="M102.22,93.88c-.47.47-.86,1.12-.86,1.46,0,.9,1.72,2.84,2.54,2.84,1.29,0,2.63-1.29,2.63-2.54,0-2.37-2.63-3.44-4.3-1.76h0Z"/>
      <path d="M289.35,93.02c-.56,0-1.33.34-1.72.77-1.51,1.68-.39,4.39,1.76,4.39,1.21,0,2.67-1.46,2.67-2.58s-1.51-2.58-2.71-2.58"/>
      <path d="M82.68,96.33c-.34,2.71-.99,7.45-2.63,19.2-.6,4.22-1.08,7.92-1.08,8.26,0,.52.69.65,3.23.65h3.19l.22-1.42c.13-.73.52-3.7.9-6.54,1.46-10.93,1.46-10.98,2.58-10.98.52,0,1.08.26,1.16.52.22.47-1.16,11.67-2.02,16.66l-.3,1.76h3.27c2.28,0,3.36-.17,3.44-.56.39-1.38,2.45-17.95,2.41-19.59,0-2.54-.56-3.4-2.58-3.96-1.98-.52-4.35-.04-5.64,1.12-.47.39-.82.56-.82.34,0-.56.82-5.81,1.08-6.97.22-.9.13-.95-2.97-.95h-3.19l-.26,2.45h0Z"/>
      <path d="M139.16,95.81c-2.97.95-4.43,2.97-5.04,6.89-1.85,12.66-2.24,16.79-1.68,18.51.9,2.71,2.71,3.66,6.97,3.66,6.59,0,8.01-1.55,9.56-10.46l.26-1.59h-6.84l-.43,3.7c-.47,3.7-.95,4.61-2.28,4.35-.9-.13-.82-1.98.39-11.28,1.08-8.35,1.51-9.9,2.84-9.9.73,0,.86.3.86,1.94,0,1.08-.17,2.97-.34,4.18l-.34,2.28h6.8l.47-4.09c.6-4.65.17-6.46-1.81-7.75-1.51-.99-6.8-1.25-9.38-.43h-.01Z"/>
      <path d="M209.62,97.58c-.34.86-.65,1.81-.65,2.11s-.65.69-1.46.82c-1.51.3-1.98.9-1.98,2.67,0,.82.22,1.03,1.08,1.03s1.08.17.86.95c-.47,2.15-1.94,13.39-1.94,14.94,0,2.32,1.25,3.75,3.79,4.26,2.2.47,5.17.22,6.03-.43.26-.26.52-1.21.52-2.11,0-1.64-.04-1.68-1.51-1.68-1.98,0-2.37-.86-1.89-3.87.22-1.29.56-4,.82-6.03.77-6.33.6-6.03,3.06-6.03,1.51,0,2.11-.17,2.11-.6,0-.3.13-1.21.26-1.94l.3-1.33h-4.39l.26-2.15.26-2.15h-2.41c-2.41,0-2.45.04-3.1,1.55h-.02Z"/>
      <path d="M274.37,98.05c-.52,1.59-.9,2.11-1.89,2.41-1.55.52-1.94.99-1.94,2.54,0,.9.22,1.21.86,1.21,1.08,0,1.08.6,0,8.39-1.08,7.58-1.08,8.87,0,10.25,1.08,1.33,4.18,2.11,6.72,1.64,2.45-.47,2.75-.73,2.75-2.67,0-1.64-.04-1.68-1.51-1.68-.86,0-1.59-.26-1.85-.65-.26-.47,1.08-13.26,1.59-15.2.04-.04,1.03-.09,2.2-.09,1.94,0,2.15-.09,2.15-.99,0-.52.13-1.38.26-1.89.26-.86.09-.95-1.81-1.08l-2.07-.13.13-2.07.13-2.02h-5.08l-.65,2.02h.01Z"/>
      <path d="M68.52,100.33c-2.32.6-3.53,1.55-4.3,3.36-.9,2.15-2.2,11.15-2.24,15.24,0,3.06.09,3.44,1.21,4.52,1.03,1.03,1.55,1.21,4.39,1.33,4.09.22,5.73-.09,7.19-1.38,1.55-1.29,2.45-3.49,2.8-6.76l.26-2.58-3.19.13-3.14.13-.47,3.01c-.52,3.49-.82,4.09-1.98,4.09-1.03,0-1.03-.69-.13-7.75.99-7.88,1.42-9.77,2.15-10.07,1.29-.52,1.59.22,1.33,3.23l-.26,2.97h3.19c2.97,0,3.23-.09,3.4-.99.9-4.48.43-6.84-1.51-7.88-1.59-.82-6.46-1.16-8.7-.6Z"/>
      <path d="M113.76,100.29c-2.2.47-3.75,1.59-4.43,3.19-.77,1.85-2.37,12.48-2.37,15.76,0,2.28.17,2.8,1.25,4,1.21,1.38,1.42,1.42,4.95,1.59,4.39.17,5.38-.04,7.06-1.46,1.21-1.03,1.85-2.71,2.45-6.37l.26-1.59h-3.27c-2.54,0-3.23.13-3.23.65,0,.3-.22,1.55-.47,2.75-.47,2.28-1.42,3.06-2.41,2.07-.52-.52-.56-1.21-.17-3.75.43-3.19.86-3.87,2.41-3.87,3.06-.04,6.72-2.41,7.79-5.04.73-1.64.77-4.61.17-5.77-.26-.43-.99-1.08-1.64-1.42-1.46-.73-6.24-1.16-8.35-.73h0ZM117.63,105.07c.22,1.98-.17,3.27-1.29,4.3-1.51,1.42-1.76,1.08-1.51-2.02.17-2.11.43-3.01.99-3.44,1.12-.82,1.68-.47,1.81,1.16Z"/>
      <path d="M157.67,100.29c-4.05.86-5.12,2.88-6.37,12.01-1.03,7.19-.9,9.38.56,10.76,2.71,2.54,9.21,2.41,12.05-.26,1.51-1.46,2.24-3.92,3.31-11.79.77-5.64.82-6.5.26-7.83-.34-.82-1.08-1.81-1.68-2.15-1.21-.82-5.81-1.21-8.14-.73h0ZM161.11,105.28c.09.69-.13,3.49-.52,6.2-.39,2.75-.82,5.81-.95,6.8-.22,1.94-1.25,2.93-2.28,2.28-.77-.43,1.29-15.84,2.2-16.4.9-.6,1.42-.22,1.55,1.12Z"/>
      <path d="M180.27,100.2c-.56.09-1.55.77-2.28,1.46l-1.29,1.33v-2.67h-5.55l-.22,1.38c-.65,4.09-2.84,21.01-2.84,21.82,0,.86.22.9,3.14.9h3.19l1.16-8.52c.6-4.65,1.12-8.91,1.12-9.47,0-.6.34-1.12.99-1.33,1.85-.73,1.94-.04.9,7.36-.52,3.87-1.08,8.14-1.25,9.47l-.26,2.5h6.37l.3-1.72c.82-5.21,2.41-17.48,2.41-18.73,0-2.67-2.75-4.43-5.9-3.79h0Z"/>
      <path d="M193.4,100.2c-1.72.26-4.05,2.63-4.61,4.65-.26.95-.47,2.71-.47,3.92,0,2.54.95,3.66,4.56,5.47,2.54,1.29,2.84,1.76,2.45,4.39-.26,2.11-1.03,3.06-2.11,2.63-.56-.22-.65-.69-.39-2.84l.3-2.58h-3.23c-3.62,0-3.75.13-3.75,3.66,0,3.92,2.15,5.47,7.36,5.47,5.98-.04,8.48-2.28,8.91-7.88.26-3.79-.34-4.74-4.13-6.54-2.75-1.33-2.88-1.46-3.01-3.06-.22-2.67.17-3.7,1.46-3.7,1.08,0,1.12.09.95,2.45l-.13,2.5,2.75.13c1.51.09,2.93-.04,3.19-.3.69-.69.52-5.47-.26-6.67-1.12-1.68-5.17-2.37-9.86-1.68l.02-.02Z"/>
      <path d="M258.52,100.29c-4.13,1.08-4.82,2.37-6.07,11.45-1.12,8.05-.99,10.16.6,11.79,1.03.99,1.51,1.12,4.95,1.25,4.09.17,5.85-.34,7.45-2.24.99-1.16,2.07-4.69,2.07-6.8v-1.68l-3.1.13-3.14.13-.47,3.01c-.52,3.53-.77,4.09-1.94,4.09-1.08,0-1.08-.9.09-9.21.75-5.54,1.39-8.41,1.94-8.61,1.29-.52,1.81.43,1.42,2.63-.6,3.75-.77,3.57,2.8,3.57s3.66,0,3.75-3.92c.09-3.1-.22-3.92-1.76-4.82-1.51-.9-6.37-1.33-8.57-.77h-.02Z"/>
      <path d="M299.07,100.29c-3.75.95-4.86,2.97-5.94,10.59-1.38,9.77-1.03,12.05,2.15,13.39,1.81.73,5.34.77,7.62.09,2.02-.6,4-2.71,4.61-4.95.26-.9.86-4.65,1.38-8.35,1.03-7.45.9-8.26-1.42-9.99-1.25-.95-6.03-1.38-8.39-.77h0ZM302.73,105.37c.09.73-.26,4.3-.73,7.96-.69,4.95-1.08,6.72-1.64,7.15-.6.43-.86.43-1.29-.04-.47-.47-.43-1.64.3-6.67.47-3.36.86-6.54.86-7.1,0-1.21,1.21-2.97,1.85-2.75.3.09.56.73.65,1.46h0Z"/>
      <path d="M321.2,100.51c-.69.39-1.59,1.12-2.02,1.64l-.82.99-.04-1.42v-1.38h-5.51l-.47,3.31c-1.21,8.01-2.63,18.85-2.63,19.76,0,.99.13,1.03,3.23,1.03,2.28,0,3.23-.17,3.23-.56,0-.26.22-1.89.47-3.53.22-1.68.69-5.25,1.03-7.96.9-6.76.99-7.19,1.94-7.45s1.85.6,1.55,1.46c-.22.52-2.41,16.92-2.41,17.74,0,.17,1.46.3,3.23.3s3.23-.09,3.23-.17.47-3.44,1.08-7.45c.56-4.05,1.16-8.87,1.33-10.72.26-3.23.22-3.53-.73-4.61-1.29-1.46-3.96-1.89-5.68-.99h0Z"/>
      <path d="M49.58,100.63c-.13.22-.34,1.51-.52,2.93-.13,1.42-.86,6.63-1.55,11.58-.69,4.95-1.25,9.08-1.25,9.17s1.46.13,3.23.13h3.19l.26-1.64c.9-5.6,1.68-8.39,3.01-11.15,1.59-3.23,3.66-5.29,5.25-5.29.9,0,1.42-1.59,1.42-4.65,0-1.25-.13-1.38-1.29-1.38-1.55,0-3.83,1.98-5.17,4.52l-.86,1.72.26-3.14.3-3.1h-3.06c-1.68,0-3.14.13-3.23.3h.01Z"/>
      <path d="M100.33,100.85c-.09.3-.39,2.41-.69,4.65-.26,2.24-.95,7.36-1.55,11.32-.56,4-1.03,7.36-1.03,7.45s1.46.17,3.23.17c2.97,0,3.23-.09,3.44-.99.09-.52.77-5.29,1.51-10.63s1.42-10.33,1.55-11.11l.26-1.38h-3.27c-2.28,0-3.36.17-3.44.52h-.01Z"/>
      <path d="M220.86,101.28c-.26,1.08-2.2,15.37-2.63,19.28-.17,1.29-.39,2.71-.47,3.1-.22.69.13.77,3.01.77h3.23l.26-1.64c1.68-10.07,4.3-15.58,7.88-16.27,1.16-.22,1.33-.47,1.59-2.07.13-.95.34-2.28.47-2.97.22-1.08.13-1.16-1.25-1.16-1.94,0-3.83,1.55-5.25,4.26l-1.08,1.98.26-3.14.3-3.1h-3.1c-2.8,0-3.06.09-3.23.95h.01Z"/>
      <path d="M235.49,101.5c-.6,2.97-2.41,17.26-2.41,19.07,0,1.51.22,2.2.99,2.88,2.07,1.94,5.04,1.76,7.19-.34l1.29-1.33v2.67h2.8c1.55,0,2.8-.04,2.8-.13,0-.52,2.24-17.05,2.58-19.03.22-1.42.43-3.1.43-3.79v-1.16h-6.41l-.26,1.81c-2.45,17.82-2.45,17.95-3.7,17.99-1.12,0-1.12-1.46-.22-8.18.56-3.92,1.12-8.14,1.29-9.38l.3-2.24h-3.23c-3.14,0-3.23,0-3.44,1.16Z"/>
      <path d="M285.6,100.68c0,.17-.69,5.25-1.51,11.28s-1.51,11.32-1.51,11.71c0,.69.43.77,3.19.77h3.19l.52-3.79c.26-2.07.99-7.02,1.55-11.06,1.46-10.16,1.68-9.26-2.2-9.26-1.76,0-3.23.13-3.23.34h0Z"/>
      <path d="M33.4,96.19c-1.21,3.96-7.96,27.51-7.96,27.85,0,.3,1.25.47,3.44.47h3.4l.69-2.37c.65-2.2.82-2.37,1.98-2.37,1.25,0,1.25.04,1.25,2.37v2.37h7.32v-12.83c0-7.02-.13-13.52-.26-14.42l-.3-1.59h-4.69c-3.36,0-4.74.17-4.86.52h-.01ZM37.23,106.53c-.13,1.98-.3,4.99-.43,6.67-.26,3.1-.26,3.14-1.46,3.14h-1.21l.56-2.5c.3-1.33.99-4.35,1.51-6.67.52-2.28.99-4.18,1.08-4.18s.04,1.59-.04,3.53h-.01Z"/>
      <path d="M180.97,57.38s-4.16.61-3.04,4.36c1.12,3.75,5.28,1.32,5.28,1.32,0,0,2.13-2.33,1.12-3.86s-3.35-1.83-3.35-1.83h0Z" style="fill: #dadada;"/>
      <path d="M180.88,59.37s-.73-.12-1,.58-.03,1.46.5,1.7.93.46,1.66-.15.55-.64.43-1.25-.58-.81-.94-.89-.64,0-.64,0h0Z" style="fill: #ff3c00;"/>
      <path d="M239.13,19.47c-.22.12-1.07.58-.58.83s.68.63,3.3-.41c2.62-1.04,29.45-10.33,29.45-10.33l6.56-2.33s.78-.39.53-.83c-.24-.44-1.9,0-1.9,0,0,0-29.04,8.78-37.37,13.07h0Z" style="fill: #dadada;"/>
      <path d="M198.97,36.22l3.16.81s28.25-10.16,52.45-15.13c10.03-2.06,11.39-3.16,11.39-3.16l6.47-7.79-32.72,11.04-1.14,1.03c-.38.34-.81.61-1.29.8l-1.42.56c-.64.25-1.31.4-1.99.44h-2.2l-32.7,11.41h-.01Z" style="fill: #dadada;"/>
      <path d="M279.99,10.46l-4.45,5.63s3.5-.43,4.45.31c.69.54,1.25,1.09,1.69,2.45s3.65.37,3.65.37c-.62-1.54-1.41-3.05-2.3-4.51-.89-1.46-1.91-2.95-3.04-4.25Z" style="fill: #dadada;"/>
    </g>
  </g>
</svg>